<?xml version="1.0" encoding="utf-8"?>
<!-- Generator: Adobe Illustrator 24.1.1, SVG Export Plug-In . SVG Version: 6.00 Build 0)  -->
<svg version="1.1" id="Layer_1" xmlns="http://www.w3.org/2000/svg" xmlns:xlink="http://www.w3.org/1999/xlink" x="0px" y="0px"
	 viewBox="0 0 512 512" style="enable-background:new 0 0 512 512;" xml:space="preserve">
<style type="text/css">
	.st0{fill:#AAA0AC;}
</style>
<path class="st0" d="M196,362h-20c-19.3,0-35,15.7-35,35v80c0,19.3,15.7,35,35,35h20c19.3,0,35-15.7,35-35v-80
	C231,377.7,215.3,362,196,362z M201,477c0,2.8-2.2,5-5,5h-20c-2.8,0-5-2.2-5-5v-80c0-2.8,2.2-5,5-5h20c2.8,0,5,2.2,5,5V477z"/>
<path class="st0" d="M76,482H61V377c0-8.3-6.7-15-15-15H16c-8.3,0-15,6.7-15,15s6.7,15,15,15h15v90H16c-8.3,0-15,6.7-15,15
	s6.7,15,15,15h60c8.3,0,15-6.7,15-15S84.3,482,76,482z"/>
<path class="st0" d="M476,362h-20c-19.3,0-35,15.7-35,35v80c0,19.3,15.7,35,35,35h20c19.3,0,35-15.7,35-35v-80
	C511,377.7,495.3,362,476,362z M481,477c0,2.8-2.2,5-5,5h-20c-2.8,0-5-2.2-5-5v-80c0-2.8,2.2-5,5-5h20c2.8,0,5,2.2,5,5V477z"/>
<path class="st0" d="M356,482h-15V377c0-8.3-6.7-15-15-15h-30c-8.3,0-15,6.7-15,15s6.7,15,15,15h15v90h-15c-8.3,0-15,6.7-15,15
	s6.7,15,15,15h60c8.3,0,15-6.7,15-15S364.3,482,356,482z"/>
<path class="st0" d="M196,181h-20c-19.3,0-35,15.7-35,35v80c0,19.3,15.7,35,35,35h20c19.3,0,35-15.7,35-35v-80
	C231,196.7,215.3,181,196,181z M201,296c0,2.8-2.2,5-5,5h-20c-2.8,0-5-2.2-5-5v-80c0-2.8,2.2-5,5-5h20c2.8,0,5,2.2,5,5V296z"/>
<path class="st0" d="M76,301H61V196c0-8.3-6.7-15-15-15H16c-8.3,0-15,6.7-15,15s6.7,15,15,15h15v90H16c-8.3,0-15,6.7-15,15
	s6.7,15,15,15h60c8.3,0,15-6.7,15-15S84.3,301,76,301z"/>
<path class="st0" d="M336,181h-20c-19.3,0-35,15.7-35,35v80c0,19.3,15.7,35,35,35h20c19.3,0,35-15.7,35-35v-80
	C371,196.7,355.3,181,336,181z M341,296c0,2.8-2.2,5-5,5h-20c-2.8,0-5-2.2-5-5v-80c0-2.8,2.2-5,5-5h20c2.8,0,5,2.2,5,5V296z"/>
<path class="st0" d="M496,301h-15V196c0-8.3-6.7-15-15-15h-30c-8.3,0-15,6.7-15,15s6.7,15,15,15h15v90h-15c-8.3,0-15,6.7-15,15
	s6.7,15,15,15h60c8.3,0,15-6.7,15-15S504.3,301,496,301z"/>
<path class="st0" d="M56,0H36C16.7,0,1,15.7,1,35v80c0,19.3,15.7,35,35,35h20c19.3,0,35-15.7,35-35V35C91,15.7,75.3,0,56,0z M61,115
	c0,2.8-2.2,5-5,5H36c-2.8,0-5-2.2-5-5V35c0-2.8,2.2-5,5-5h20c2.8,0,5,2.2,5,5V115z"/>
<path class="st0" d="M216,120h-15V15c0-8.3-6.7-15-15-15h-30c-8.3,0-15,6.7-15,15s6.7,15,15,15h15v90h-15c-8.3,0-15,6.7-15,15
	s6.7,15,15,15h60c8.3,0,15-6.7,15-15S224.3,120,216,120z"/>
<path class="st0" d="M476,0h-20c-19.3,0-35,15.7-35,35v80c0,19.3,15.7,35,35,35h20c19.3,0,35-15.7,35-35V35C511,15.7,495.3,0,476,0z
	 M481,115c0,2.8-2.2,5-5,5h-20c-2.8,0-5-2.2-5-5V35c0-2.8,2.2-5,5-5h20c2.8,0,5,2.2,5,5V115z"/>
<path class="st0" d="M356,120h-15V15c0-8.3-6.7-15-15-15h-30c-8.3,0-15,6.7-15,15s6.7,15,15,15h15v90h-15c-8.3,0-15,6.7-15,15
	s6.7,15,15,15h60c8.3,0,15-6.7,15-15S364.3,120,356,120z"/>
</svg>
