<svg xmlns="http://www.w3.org/2000/svg" viewBox="0 0 668.59 608.75"><defs><style>.cls-1{fill:#fff;}</style></defs><g id="Layer_2" data-name="Layer 2"><g id="Layer_1-2" data-name="Layer 1"><path class="cls-1" d="M334.56,1.23C293.23-5.29,266.91,14.58,249,49.47c-1.3,2.54-2.92,4.92-4.28,7.45q-118.8,222-237.42,444.13C-11,535.37,6.89,585.87,41.82,603.8c17.5,9,33.61,5.56,45.61-10.31,5.45-7.22,10.14-15,14.86-22.77,43-70.49,85.39-141.31,129-211.42,27.2-43.76,55.71-86.72,84.4-129.54,11.29-16.85,24.66-16.38,37-.55,1.76,2.26,3.44,4.59,5,7,44.68,70.55,89.6,140.94,133.88,211.74,29.35,46.92,57.52,94.58,86.74,141.59,11.59,18.64,27.21,23.39,45.22,15.66C659,590,680,536.68,662.09,502.92Q552.41,295.5,441.58,88.7c-11.23-21-24.24-41.06-37.07-61.14-10.15-15.9-25-24.47-44.2-24.95C351.72,2.39,343.15,1.7,334.56,1.23Z"/><path d="M334.56,1.23c8.59.47,17.16,1.16,25.75,1.38,19.22.48,34.05,9.05,44.2,25,12.83,20.08,25.84,40.15,37.07,61.14Q552.29,295.57,662.09,502.92C680,536.68,659,590,623.47,605.2c-18,7.73-33.63,3-45.22-15.66-29.22-47-57.39-94.67-86.74-141.59-44.28-70.8-89.2-141.19-133.88-211.74-1.53-2.41-3.21-4.74-5-7-12.35-15.83-25.72-16.3-37,.55-28.69,42.82-57.2,85.78-84.4,129.54-43.57,70.11-86,140.93-129,211.42-4.72,7.74-9.41,15.55-14.86,22.77-12,15.87-28.11,19.29-45.61,10.31C6.89,585.87-11,535.37,7.25,501.05Q125.44,278.71,244.67,56.92c1.36-2.53,3-4.91,4.28-7.45C266.91,14.58,293.23-5.29,334.56,1.23Z"/></g></g></svg>