<svg xmlns="http://www.w3.org/2000/svg" viewBox="0 0 229.25 310.88"><defs><style>.cls-1{fill:#4e7896;}.cls-2{fill:#f58219;}</style></defs><g id="Layer_2" data-name="Layer 2"><g id="svg1968"><g id="layer1"><g id="Ebene_1"><g id="_198302696" data-name=" 198302696"><path id="_227268128" data-name=" 227268128" class="cls-1" d="M74,240.34s-11.94,7.26,8.3,9.34c24.4,3.11,37.38,2.59,64.37-2.6a97,97,0,0,0,17.13,8.31c-60.73,25.95-137.56-1.56-89.8-15ZM66.25,206.6s-13,9.86,7.27,11.93c26.47,2.6,47.24,3.12,83.05-4.15A31.78,31.78,0,0,0,169,222.17C95.84,244,13.83,224.24,66.25,206.6Zm143.27,59.17s8.82,7.27-9.86,13c-34.78,10.38-145.87,13.49-177,0-10.9-4.67,9.86-11.42,16.61-12.46a51.66,51.66,0,0,1,10.38-1.56c-11.94-8.3-79.42,17.13-34.26,24.4,124.06,20.24,226.32-8.82,194.14-23.36ZM79.75,171.3s-56.58,13.49-20.24,18.17c15.57,2.07,46.19,1.55,74.74-.52,23.36-2.08,46.72-6.23,46.72-6.23A125.14,125.14,0,0,0,167,190C109.34,205-1.23,198.29,30.44,182.72c27-13,49.31-11.42,49.31-11.42ZM181,227.88c58.14-30.11,31.15-59.18,12.46-55.54a32.26,32.26,0,0,0-6.75,2.07,8.92,8.92,0,0,1,5.19-4.15c36.86-13,65.93,38.93-11.94,59.17a6.22,6.22,0,0,0,1-1.55Zm-95.51,82c56.06,3.64,141.71-2.07,143.79-28.55,0,0-4.16,10.39-46.2,18.17-47.76,8.83-106.93,7.79-141.71,2.08,0,0,7.26,6.23,44.12,8.3Z"/><path id="_230367536" data-name=" 230367536" class="cls-2" d="M145.67,0s32.19,32.7-30.62,82c-50.35,40-11.42,62.8,0,88.76C85.46,144.31,64.18,121,78.71,99.14,100,67,158.65,51.39,145.67,0ZM129.06,149c15.06,17.13-4.15,32.7-4.15,32.7s38.41-19.73,20.76-44.12c-16.09-23.36-28.55-34.78,38.93-73.71,0,0-106.41,26.47-55.54,85.13Z"/></g></g></g></g></g></svg>