<?xml version="1.0" encoding="utf-8"?>
<!-- Generator: Adobe Illustrator 24.1.1, SVG Export Plug-In . SVG Version: 6.00 Build 0)  -->
<svg version="1.1" id="Layer_1" xmlns="http://www.w3.org/2000/svg" xmlns:xlink="http://www.w3.org/1999/xlink" x="0px" y="0px"
	 viewBox="0 0 384 384" style="enable-background:new 0 0 384 384;" xml:space="preserve">
<style type="text/css">
	.st0{fill:#AAA0AC;}
</style>
<path class="st0" d="M40.4,283c8-3.8,11.3-13.4,7.4-21.4C37.3,239.9,32,216.5,32,192c0-88.2,71.8-160,160-160s160,71.8,160,160
	s-71.8,160-160,160c-36.6,0-70.9-11.9-99.3-34.5c-6.9-5.5-17-4.4-22.5,2.6c-5.5,6.9-4.4,17,2.6,22.5c33.7,26.7,76,41.5,119.2,41.5
	c105.9,0,192-86.1,192-192S297.9,0,192,0S0,86.1,0,192c0,29.3,6.4,57.4,19,83.5C22.9,283.5,32.5,286.8,40.4,283z"/>
<path class="st0" d="M192,64c-8.8,0-16,7.2-16,16v112c0,8.8,7.2,16,16,16h80c8.8,0,16-7.2,16-16s-7.2-16-16-16h-64V80
	C208,71.2,200.8,64,192,64z"/>
<path class="st0" d="M64.6,293.2l-1.8-42.6c-0.4-9.8-11.2-15.4-19.5-10.2l-36,22.9c-8.2,5.2-7.7,17.4,0.9,21.9L46,305
	C54.7,309.5,65,302.9,64.6,293.2z"/>
</svg>
