<svg xmlns="http://www.w3.org/2000/svg" viewBox="0 0 41.89 41.85"><defs><style>.cls-1{fill:#010101;fill-rule:evenodd;}</style></defs><g id="Layer_2" data-name="Layer 2"><g id="Layer_1-2" data-name="Layer 1"><g id="Page-1"><g id="logo"><path class="cls-1" d="M31.83,3A21.17,21.17,0,0,0,15.64.66,20.94,20.94,0,1,0,31.83,3ZM22.11,38.75c-9.52,1-18.72-7.12-19-16.68a17.86,17.86,0,0,1,11.69-18C25.05,0,37.61,7.56,38.67,18.54,40.32,28.42,32.12,38.46,22.11,38.75Z"/><path id="Shape" class="cls-1" d="M15.84,19.86c4.59-3.75,9.08-7.63,13.77-11.27-2.46,3.78-5,7.51-7.45,11.29-2.11,0-4.22,0-6.32,0Z"/><path id="Shape-2" data-name="Shape" class="cls-1" d="M19.72,22c2.12,0,4.23,0,6.34,0C21.44,25.71,17,29.62,12.27,33.25c2.46-3.78,5-7.52,7.45-11.3Z"/></g></g></g></g></svg>